<svg width="67" height="67" viewBox="0 0 67 67" fill="none" xmlns="http://www.w3.org/2000/svg">
<g clip-path="url(#clip0_46_228)">
<path d="M62.8125 25.1251H4.1875C1.88176 25.1251 0 27.0055 0 29.1948C0 41.5938 6.73926 52.37 16.75 58.1802V62.6948C16.75 65.0006 18.6318 66.7645 20.9375 66.7645H46.0625C48.3682 66.7645 50.25 64.8841 50.25 62.6948V58.1802C60.2607 52.3726 67 41.6003 67 29.1948C67 27.0095 65.1156 25.1251 62.8125 25.1251ZM43.9688 54.6731V60.7254H23.0312V54.6731C14.1982 49.5526 7.28887 43.2884 6.35977 31.4063H60.6402C59.7242 43.0397 53.0504 49.4126 43.9688 54.6731ZM22.4947 13.1776C24.1174 14.0151 25.125 15.8864 25.125 17.797C25.125 19.5309 26.5317 20.9232 28.2656 20.9232C29.9995 20.9232 31.4062 19.3804 31.4062 17.7577C31.4062 13.6566 29.2065 9.8224 25.6602 7.75352C24.0389 6.80871 23.0312 5.0552 23.0312 3.17736C23.0312 1.44348 21.6245 0.018418 19.8906 0.018418C18.1567 0.018418 16.75 1.44348 16.75 3.17736C16.75 7.2798 18.9484 11.1127 22.4947 13.1776ZM37.151 13.1776C38.7736 14.0151 39.7812 15.8864 39.7812 17.797C39.7812 19.5309 41.188 20.9193 42.9219 20.9193C44.6558 20.9193 46.0625 19.3804 46.0625 17.7577C46.0625 13.6566 43.8628 9.8224 40.3165 7.75352C38.6951 6.80871 37.6875 5.0552 37.6875 3.17736C37.6875 1.44348 36.2808 0.0131836 34.5469 0.0131836C32.813 0.0131836 31.4062 1.44348 31.4062 3.17736C31.4062 7.2798 33.6047 11.1127 37.151 13.1776Z" fill="url(#paint0_linear_46_228)"/>
</g>
<defs>
<linearGradient id="paint0_linear_46_228" x1="33.5" y1="0.0131836" x2="33.5" y2="66.7645" gradientUnits="userSpaceOnUse">
<stop stop-color="#E55137"/>
<stop offset="1" stop-color="#E58037"/>
</linearGradient>
<clipPath id="clip0_46_228">
<rect width="67" height="67" fill="white"/>
</clipPath>
</defs>
</svg>
