<svg width="62" height="53" viewBox="0 0 62 53" fill="none" xmlns="http://www.w3.org/2000/svg">
<path d="M55.111 0C51.306 0 48.2221 2.96572 48.2221 6.625C48.2221 10.2843 51.306 13.25 55.111 13.25C58.916 13.25 61.9999 10.2843 61.9999 6.625C61.9999 2.96572 58.9107 0 55.111 0ZM5.19777 15.0408L28.0387 32.1312C29.7814 33.4355 32.2227 33.4355 33.9653 32.1312L54.815 16.5418C49.2447 16.3762 44.7777 12.0182 44.7777 6.625H8.611C5.7575 6.625 3.44434 8.84955 3.44434 11.5938C3.44434 12.9395 4.09125 14.2127 5.19777 15.0408ZM30.9999 36.4375C29.2206 36.4375 27.4403 35.887 25.9226 34.7502L3.44434 17.9393V41.4062C3.44434 44.1494 5.7575 46.375 8.611 46.375H53.3888C56.2423 46.375 58.5554 44.1504 58.5554 41.4062V17.9393L36.0804 34.7605C34.5627 35.8889 32.7759 36.4375 30.9999 36.4375Z" fill="url(#paint0_linear_66_33)"/>
<defs>
<linearGradient id="paint0_linear_66_33" x1="32.7221" y1="0" x2="32.7221" y2="46.375" gradientUnits="userSpaceOnUse">
<stop stop-color="#E55137"/>
<stop offset="1" stop-color="#E58037"/>
</linearGradient>
</defs>
</svg>
