<svg width="228" height="28" viewBox="0 0 228 28" fill="none" xmlns="http://www.w3.org/2000/svg">
<path d="M1.28 2.2H9.64L12.68 15H12.92L15.96 2.2H24.32L25.28 27H19.24L18.8 15L18.96 8.32L18.6 8.24L15.04 21.04H10.56L7 8.24L6.64 8.32L6.8 15L6.36 27H0.32L1.28 2.2ZM36.8894 27.36C33.796 27.36 31.5427 26.5467 30.1294 24.92C28.716 23.2933 28.0094 20.9733 28.0094 17.96C28.0094 15.9867 28.4094 14.2267 29.2094 12.68C30.036 11.1333 31.2094 9.92 32.7294 9.04C34.276 8.16 36.1027 7.72 38.2094 7.72C44.1294 7.72 47.0894 10.8933 47.0894 17.24C47.0894 20.3067 46.2494 22.76 44.5694 24.6C42.8894 26.44 40.3294 27.36 36.8894 27.36ZM37.6094 22.36C38.676 22.36 39.6627 22.2267 40.5694 21.96C41.0227 20.8133 41.2494 19.3333 41.2494 17.52C41.2494 15.76 40.9694 14.5467 40.4094 13.88C39.876 13.1867 38.9027 12.84 37.4894 12.84C36.476 12.84 35.4894 12.96 34.5294 13.2C34.076 14.32 33.8494 15.8133 33.8494 17.68C33.8494 19.44 34.116 20.6667 34.6494 21.36C35.2094 22.0267 36.196 22.36 37.6094 22.36ZM56.515 27.32C53.5017 27.32 50.9417 26.8 48.835 25.76L50.515 21.16C51.475 21.56 52.4617 21.8667 53.475 22.08C54.4883 22.2933 55.435 22.4 56.315 22.4C57.435 22.4 58.395 22.3333 59.195 22.2C59.3283 22.04 59.395 21.8 59.395 21.48C59.395 21.16 59.2083 20.92 58.835 20.76C58.4883 20.6 57.7017 20.3733 56.475 20.08C54.635 19.6533 53.2083 19.2267 52.195 18.8C51.1817 18.3467 50.395 17.72 49.835 16.92C49.275 16.12 48.995 15.0133 48.995 13.6C48.995 9.68 51.795 7.72 57.395 7.72C58.675 7.72 59.9417 7.85333 61.195 8.12C62.475 8.36 63.555 8.68 64.435 9.08V10.4C64.435 10.9333 64.3817 11.64 64.275 12.52C64.1683 13.3733 64.0483 13.9867 63.915 14.36H59.115L58.795 12.56C58.2617 12.4533 57.6617 12.4 56.995 12.4C55.6083 12.4 54.915 12.84 54.915 13.72C54.915 14.2267 55.1683 14.5867 55.675 14.8C56.1817 15.0133 57.1417 15.2667 58.555 15.56C60.1283 15.88 61.3817 16.24 62.315 16.64C63.2483 17.0133 63.9683 17.6 64.475 18.4C65.0083 19.1733 65.275 20.2533 65.275 21.64C65.275 23.5333 64.5817 24.96 63.195 25.92C61.835 26.8533 59.6083 27.32 56.515 27.32ZM76.8928 27.4C73.4261 27.4 70.9061 26.5733 69.3328 24.92C67.7861 23.2667 67.0128 20.9067 67.0128 17.84C67.0128 14.8 67.8661 12.3867 69.5728 10.6C71.3061 8.78667 73.6528 7.88 76.6128 7.88C79.5728 7.88 81.9861 8.42667 83.8528 9.52V10.96C83.8528 12.4267 83.6795 13.88 83.3328 15.32H78.4128L78.0928 13.52C77.5595 13.4133 76.9195 13.36 76.1728 13.36C75.1061 13.36 74.2128 13.4667 73.4928 13.68C73.1195 14.9067 72.9328 16.2133 72.9328 17.6C72.9328 19.0667 73.2261 20.1467 73.8128 20.84C74.4261 21.5067 75.5061 21.84 77.0528 21.84C78.9461 21.84 80.6128 21.2667 82.0528 20.12L84.6928 24.4C83.6528 25.3333 82.5061 26.0667 81.2528 26.6C80.0261 27.1333 78.5728 27.4 76.8928 27.4ZM94.6175 27.36C91.5242 27.36 89.2708 26.5467 87.8575 24.92C86.4442 23.2933 85.7375 20.9733 85.7375 17.96C85.7375 15.9867 86.1375 14.2267 86.9375 12.68C87.7642 11.1333 88.9375 9.92 90.4575 9.04C92.0042 8.16 93.8308 7.72 95.9375 7.72C101.857 7.72 104.817 10.8933 104.817 17.24C104.817 20.3067 103.977 22.76 102.297 24.6C100.617 26.44 98.0575 27.36 94.6175 27.36ZM95.3375 22.36C96.4042 22.36 97.3908 22.2267 98.2975 21.96C98.7508 20.8133 98.9775 19.3333 98.9775 17.52C98.9775 15.76 98.6975 14.5467 98.1375 13.88C97.6042 13.1867 96.6308 12.84 95.2175 12.84C94.2042 12.84 93.2175 12.96 92.2575 13.2C91.8042 14.32 91.5775 15.8133 91.5775 17.68C91.5775 19.44 91.8442 20.6667 92.3775 21.36C92.9375 22.0267 93.9242 22.36 95.3375 22.36ZM111.018 27C108.911 21.3467 107.125 15.0667 105.658 8.16L111.458 7.88C112.018 11.2133 112.485 13.84 112.858 15.76C113.231 17.68 113.685 19.68 114.218 21.76H114.538C115.605 19.0933 116.658 16.2133 117.698 13.12C117.298 11.68 116.925 10.1067 116.578 8.4L122.058 8.12C122.671 11.4267 123.165 13.9467 123.538 15.68C123.911 17.3867 124.405 19.36 125.018 21.6H125.258C125.898 19.6267 126.445 17.68 126.898 15.76C127.378 13.84 127.951 11.24 128.618 7.96L134.418 8.32C132.578 15.3867 130.591 21.6133 128.458 27H122.138C121.498 25.3467 120.738 23.16 119.858 20.44H119.538C118.951 22.04 118.071 24.2267 116.898 27H111.018ZM158.561 27.4C154.588 27.4 151.548 26.4 149.441 24.4C147.361 22.3733 146.321 19.36 146.321 15.36C146.321 11.2267 147.321 7.93333 149.321 5.48C151.321 3.02666 154.294 1.8 158.241 1.8C161.574 1.8 164.441 2.42667 166.841 3.68V5.36C166.841 6.26667 166.788 7.22667 166.681 8.24C166.601 9.25333 166.481 10.0533 166.321 10.64H161.361L160.961 7.68C160.081 7.46667 158.988 7.36 157.681 7.36C156.214 7.36 154.748 7.52 153.281 7.84C152.641 10.0533 152.321 12.48 152.321 15.12C152.321 17.4667 152.828 19.1733 153.841 20.24C154.854 21.3067 156.561 21.84 158.961 21.84C160.428 21.84 161.721 21.68 162.841 21.36C163.988 21.0133 165.068 20.5333 166.081 19.92L168.401 24.6C167.121 25.5333 165.708 26.24 164.161 26.72C162.614 27.1733 160.748 27.4 158.561 27.4ZM171.038 0.16H176.958V7.48L176.758 10.92H176.998C177.851 9.88 178.811 9.09333 179.878 8.56C180.945 8 182.171 7.72 183.558 7.72C185.425 7.72 186.865 8.18667 187.878 9.12C188.891 10.0533 189.398 11.4267 189.398 13.24V27H183.478V13.76C182.891 13.52 182.118 13.4 181.158 13.4C179.451 13.4 178.051 13.8267 176.958 14.68V27H171.038V0.16ZM202.038 27.24C198.865 27.24 196.425 26.44 194.718 24.84C193.038 23.24 192.198 20.88 192.198 17.76C192.198 14.48 193.012 11.9867 194.638 10.28C196.265 8.57333 198.612 7.72 201.678 7.72C204.398 7.72 206.492 8.44 207.958 9.88C209.452 11.2933 210.198 13.24 210.198 15.72C210.198 16.12 210.185 16.4267 210.158 16.64L207.238 19.52L197.958 19.44C197.958 20.3733 198.278 21.08 198.918 21.56C199.585 22.0133 200.692 22.24 202.238 22.24C203.625 22.24 204.825 22.1067 205.838 21.84C206.852 21.5467 207.825 21.1333 208.758 20.6L210.198 25.16C209.185 25.8267 208.025 26.3467 206.718 26.72C205.438 27.0667 203.878 27.24 202.038 27.24ZM204.558 15.56C204.638 15.2667 204.678 15.0267 204.678 14.84C204.678 14.1733 204.385 13.6533 203.798 13.28C203.212 12.88 202.465 12.68 201.558 12.68C200.305 12.68 199.398 12.9467 198.838 13.48C198.278 13.9867 197.972 14.7333 197.918 15.72L204.558 15.56ZM214.331 13.16H211.331L212.131 8.12H214.331V5.32C214.331 4.30666 214.758 3.37333 215.611 2.52C216.465 1.64 217.478 0.919999 218.651 0.36C219.851 0.12 221.211 -4.76837e-07 222.731 -4.76837e-07C224.251 -4.76837e-07 225.691 0.293332 227.051 0.879998L225.491 6.08C224.638 5.76 223.745 5.6 222.811 5.6C221.905 5.6 221.131 5.72 220.491 5.96C220.305 6.44 220.211 7.06667 220.211 7.84V8.12H224.851L224.051 13.16H220.211V27H214.331V13.16Z" fill="url(#paint0_linear_61_7175)"/>
<defs>
<linearGradient id="paint0_linear_61_7175" x1="239.434" y1="-19" x2="-4.57964" y2="4.50094" gradientUnits="userSpaceOnUse">
<stop stop-color="#E55538"/>
<stop offset="1" stop-color="#E58037"/>
</linearGradient>
</defs>
</svg>
