<svg width="53" height="53" viewBox="0 0 53 53" fill="none" xmlns="http://www.w3.org/2000/svg">
<g clip-path="url(#clip0_66_25)">
<path d="M52.9172 40.0605L50.5105 50.4949C50.1724 51.97 48.8759 53.002 47.3574 53.002C21.2414 52.9999 0 31.7585 0 5.64154C0 4.124 1.03195 2.82591 2.50715 2.48949L12.9415 0.0827504C14.4611 -0.26941 16.0139 0.519379 16.6453 1.95845L21.4609 13.1899C22.0238 14.5128 21.6441 16.0542 20.5313 16.963L14.958 21.438C18.4755 28.6034 24.3013 34.4292 31.4688 37.9488L36.0317 32.3796C36.9311 31.2637 38.484 30.8776 39.8069 31.4506L51.0384 36.2651C52.3893 36.9757 53.2691 38.5492 52.9172 40.0605Z" fill="url(#paint0_linear_66_25)"/>
</g>
<defs>
<linearGradient id="paint0_linear_66_25" x1="26.4975" y1="-0.000671387" x2="26.4975" y2="53.002" gradientUnits="userSpaceOnUse">
<stop stop-color="#E55137"/>
<stop offset="1" stop-color="#E58037"/>
</linearGradient>
<clipPath id="clip0_66_25">
<rect width="53" height="53" fill="white"/>
</clipPath>
</defs>
</svg>
