<svg width="53" height="53" viewBox="0 0 53 53" fill="none" xmlns="http://www.w3.org/2000/svg">
<g clip-path="url(#clip0_66_35)">
<path d="M26.5 0.828125C11.8644 0.828125 0 12.3218 0 26.5C0 40.6782 11.8644 52.1719 26.5 52.1719C41.1356 52.1719 53 40.6782 53 26.5C53 12.3218 41.1356 0.828125 26.5 0.828125ZM38.7832 18.2871C38.3844 22.3464 36.6588 32.1973 35.7806 36.7439C35.4091 38.6676 34.6776 39.3128 33.9696 39.3758C32.4309 39.5131 31.2621 38.3906 29.7716 37.4441C27.4393 35.963 26.1216 35.041 23.8576 33.5957C21.2412 31.9255 22.9374 31.0078 24.4284 29.5068C24.8186 29.1142 31.5991 23.1396 31.7303 22.5976C31.7467 22.5298 31.7624 22.2767 31.607 22.1438C31.4517 22.0108 31.2234 22.0559 31.0583 22.092C30.8245 22.1435 27.0985 24.5292 19.8804 29.2493C18.8229 29.9528 17.865 30.2955 17.0067 30.2776C16.0605 30.2578 14.2404 29.7594 12.8873 29.3332C11.2278 28.8107 9.90876 28.5344 10.0236 27.6469C10.0835 27.1845 10.7406 26.7118 11.9951 26.2287C19.7204 22.9681 24.8718 20.8184 27.4493 19.7797C34.8086 16.8142 36.3378 16.2992 37.3345 16.282C37.5538 16.2785 38.044 16.331 38.3614 16.5806C38.5726 16.7584 38.7072 17.0065 38.7386 17.2758C38.7924 17.6102 38.8074 17.9494 38.7832 18.2871Z" fill="url(#paint0_linear_66_35)"/>
</g>
<defs>
<linearGradient id="paint0_linear_66_35" x1="26.5" y1="0.828125" x2="26.5" y2="52.1719" gradientUnits="userSpaceOnUse">
<stop stop-color="#E55137"/>
<stop offset="1" stop-color="#E58037"/>
</linearGradient>
<clipPath id="clip0_66_35">
<rect width="53" height="53" fill="white"/>
</clipPath>
</defs>
</svg>
