<svg width="33" height="33" viewBox="0 0 33 33" fill="none" xmlns="http://www.w3.org/2000/svg">
<g clip-path="url(#clip0_49_260)">
<rect width="33" height="33" fill="white"/>
<path d="M32.7228 3.78404C32.2265 2.72186 31.1824 2.0625 29.99 2.0625H3.00671C1.81819 2.0625 0.771474 2.72186 0.276023 3.78404C-0.205957 4.81658 -0.0488721 6.00445 0.685752 6.88359L11.3463 19.974V24.3381C11.3463 25.147 11.7445 25.9044 12.4111 26.3652L17.7168 30.4612C18.1177 30.7828 18.6656 30.9375 19.1683 30.9375C20.5399 30.9375 21.6556 29.8296 21.6556 28.467V19.974L32.3226 6.8707C33.0515 6.00445 33.2062 4.81658 32.7228 3.78404ZM19.0265 18.2467C18.7267 18.6149 18.5631 19.0755 18.5631 19.5506V27.2057L14.4381 24.0223V19.6066C14.4381 19.1316 14.2744 18.6708 13.9746 18.3028L3.27226 5.15883H29.7238L19.0265 18.2467Z" fill="#AEAEAE"/>
</g>
<defs>
<clipPath id="clip0_49_260">
<rect width="33" height="33" fill="white"/>
</clipPath>
</defs>
</svg>
