<svg width="20" height="15" viewBox="0 0 20 15" fill="none" xmlns="http://www.w3.org/2000/svg">
<path d="M10 11.25C9.3543 11.25 8.70859 11.0382 8.15781 10.609L0 4.26562V13.125C0 14.1602 0.839453 15 1.875 15H18.125C19.1605 15 20 14.1605 20 13.125V4.26562L11.8438 10.6133C11.293 11.0391 10.6445 11.25 10 11.25ZM0.636328 3.17578L8.92539 9.625C9.55781 10.1172 10.4437 10.1172 11.0762 9.625L19.3652 3.17578C19.7305 2.86328 20 2.38281 20 1.875C20 0.839453 19.1602 0 18.125 0H1.875C0.839453 0 0 0.839453 0 1.875C0 2.38281 0.234766 2.86328 0.636328 3.17578Z" fill="url(#paint0_linear_67_3219)"/>
<defs>
<linearGradient id="paint0_linear_67_3219" x1="10" y1="0" x2="10" y2="15" gradientUnits="userSpaceOnUse">
<stop stop-color="#E55137"/>
<stop offset="1" stop-color="#E58037"/>
</linearGradient>
</defs>
</svg>
