<svg width="75" height="67" viewBox="0 0 75 67" fill="none" xmlns="http://www.w3.org/2000/svg">
<path d="M70.8333 31.4062C69.987 31.4062 69.4818 31.2427 68.9453 30.9482C64.4401 17.81 52.0964 8.375 37.5 8.375C22.9036 8.375 10.5469 17.823 6.05469 30.9482C5.51823 31.2623 5.01302 31.4062 4.16667 31.4062C1.8724 31.4062 0 33.288 0 35.5938C0 37.8995 1.8724 39.7812 4.16667 39.7812C8.33333 39.7812 10.5599 38.0146 12.224 36.8526C13.4115 35.9602 13.9062 35.5938 15.2995 35.5938C16.6823 35.5938 17.1719 35.9536 18.3594 36.8533C19.9089 38.0146 22.2526 39.7812 26.4193 39.7812C30.5859 39.7812 32.9297 38.0146 34.4766 36.8526C35.651 35.9602 36.1458 35.5938 37.5391 35.5938C38.9232 35.5938 39.4115 35.9536 40.5833 36.8533C42.1354 38.0146 44.4661 39.7812 48.6328 39.7812C52.7995 39.7812 55.1432 38.0146 56.6901 36.8526C57.8646 35.9602 58.3464 35.5938 59.7526 35.5938C61.1354 35.5938 61.6081 35.9536 62.7969 36.8533C64.2057 38.0146 66.6667 39.7812 70.8333 39.7812C73.1276 39.7812 75 37.8995 75 35.5938C75 33.288 73.125 31.4062 70.8333 31.4062ZM26.862 19.7729L24.7786 23.9604C24.4271 24.6801 23.5807 25.125 22.9167 25.125C22.2005 25.125 21.5104 24.7455 21.1458 24.1305C20.7682 23.5285 20.7422 22.7303 21.0547 22.1021L23.138 17.9146C23.6589 16.8678 24.9036 16.4634 25.9297 16.971C26.9531 17.4959 27.3828 18.7521 26.862 19.7729ZM39.5833 23.0312C39.5833 24.1959 38.6589 25.125 37.5 25.125C36.3411 25.125 35.4167 24.1959 35.4167 23.0312V18.8438C35.4167 17.6791 36.3411 16.75 37.5 16.75C38.6589 16.75 39.5833 17.6824 39.5833 18.8438V23.0312ZM53.0078 24.9025C51.9824 25.426 50.7253 25.014 50.2201 23.9672L48.1367 19.7797C47.6159 18.7491 48.0391 17.4844 49.0645 16.978C50.0898 16.4545 51.3353 16.8829 51.8561 17.9133L53.9395 22.1008C54.4531 23.1229 54.0365 24.3922 53.0078 24.9025ZM57.9948 52.3438H17.0052L13.3073 41.2076C11.5495 42.3853 9.58073 43.2032 7.51302 43.6128L11.5495 55.767C12.125 57.4604 13.6979 58.625 15.5078 58.625H59.5052C61.2956 58.625 62.8906 57.4636 63.444 55.7618L67.4805 43.6076C65.4128 43.1986 63.444 42.3808 61.7018 41.2024L57.9948 52.3438Z" fill="url(#paint0_linear_46_224)"/>
<defs>
<linearGradient id="paint0_linear_46_224" x1="37.5" y1="8.375" x2="37.5" y2="58.625" gradientUnits="userSpaceOnUse">
<stop stop-color="#E55137"/>
<stop offset="1" stop-color="#E58037"/>
</linearGradient>
</defs>
</svg>
