<svg width="67" height="67" viewBox="0 0 67 67" fill="none" xmlns="http://www.w3.org/2000/svg">
<g clip-path="url(#clip0_46_220)">
<path d="M66.9998 31.4062C66.9998 24.8816 63.3227 19.2599 57.7258 16.5145C56.0901 12.1647 52.1643 9.1065 47.5515 8.53465C45.8831 8.27293 44.4044 8.42713 42.7843 8.86847C40.4616 3.49002 35.1487 0 29.2862 0C23.4237 0 18.1239 3.49918 15.8207 8.88012C13.4784 8.24152 11.9408 8.38939 11.0248 8.53596C4.97251 9.25568 0.327522 14.2244 0.0167177 20.3094C-0.114142 22.2854 0.556513 25.1499 1.40644 26.7359C2.58418 28.8427 3.48449 31.3146 3.89277 33.7513C2.92768 33.98 2.01101 34.4053 1.32531 35.158C0.376581 36.1882 -0.0984385 37.5619 0.0167177 38.9516C0.834589 48.486 6.74027 56.8139 15.2749 60.7135C15.6506 64.2389 18.595 67 22.1805 67H44.8977C48.4806 67 51.4577 64.2363 51.8005 60.6873C60.3064 56.7629 66.182 48.4546 66.9802 38.9516C67.062 37.9377 66.7349 36.973 66.2278 36.0897C66.6858 34.5992 66.9998 33.042 66.9998 31.4062ZM27.2186 14.6562C27.2186 13.5047 28.1608 12.5625 29.3123 12.5625C30.4639 12.5625 31.4061 13.4989 31.4061 14.6562V33.5H27.2186V14.6562ZM8.98858 19.4588C9.80645 18.6409 11.1321 18.6409 11.9486 19.4588L25.9885 33.5H20.0737L8.98858 22.4162C8.17071 21.6049 8.17071 20.2701 8.98858 19.4588ZM47.6327 55.6152L45.5716 56.3674V59.9647C45.5716 60.39 45.2608 60.7172 44.901 60.7172H22.1805C21.8206 60.7172 21.5099 60.39 21.5099 59.9647V56.3831L19.4318 55.6473C12.529 53.2787 7.55632 47.0289 6.44402 39.7871H60.5544C59.4623 47.0178 54.5028 53.1289 47.6327 55.6152ZM60.4307 33.5131H40.069C39.9218 32.8261 39.7746 32.1561 39.7746 31.5371C39.7746 25.7479 44.4698 21.071 50.2433 21.071C56.2798 21.071 60.7291 26.1575 60.7291 31.5371C60.7186 32.1521 60.5746 32.8195 60.4307 33.5131Z" fill="url(#paint0_linear_46_220)"/>
</g>
<defs>
<linearGradient id="paint0_linear_46_220" x1="33.4998" y1="0" x2="33.4998" y2="67" gradientUnits="userSpaceOnUse">
<stop stop-color="#E55137"/>
<stop offset="1" stop-color="#E58037"/>
</linearGradient>
<clipPath id="clip0_46_220">
<rect width="67" height="67" fill="white"/>
</clipPath>
</defs>
</svg>
