<svg width="21" height="21" viewBox="0 0 21 21" fill="none" xmlns="http://www.w3.org/2000/svg">
<g clip-path="url(#clip0_49_272)">
<path d="M20.8564 19.2322L15.8771 14.2529C15.7828 14.1586 15.6598 14.1094 15.5285 14.1094H14.9871C16.2791 12.6123 17.0625 10.6641 17.0625 8.53125C17.0625 3.81855 13.2439 0 8.53125 0C3.81855 0 0 3.81855 0 8.53125C0 13.2439 3.81855 17.0625 8.53125 17.0625C10.6641 17.0625 12.6123 16.2791 14.1094 14.9871V15.5285C14.1094 15.6598 14.1627 15.7828 14.2529 15.8771L19.2322 20.8564C19.425 21.0492 19.7367 21.0492 19.9295 20.8564L20.8564 19.9295C21.0492 19.7367 21.0492 19.425 20.8564 19.2322ZM8.53125 15.0938C4.90547 15.0938 1.96875 12.157 1.96875 8.53125C1.96875 4.90547 4.90547 1.96875 8.53125 1.96875C12.157 1.96875 15.0938 4.90547 15.0938 8.53125C15.0938 12.157 12.157 15.0938 8.53125 15.0938Z" fill="#AEAEAE"/>
</g>
<defs>
<clipPath id="clip0_49_272">
<rect width="21" height="21" fill="white"/>
</clipPath>
</defs>
</svg>
