<svg width="21" height="33" viewBox="0 0 21 33" fill="none" xmlns="http://www.w3.org/2000/svg">
<path d="M17.7911 18.5625H3.16001C0.36307 18.5625 -1.05574 21.8986 0.937289 23.8412L8.28073 31.06C9.50266 32.2685 11.5042 32.2685 12.734 31.06L20.025 23.8412C21.9911 21.9012 20.6524 18.5625 17.7911 18.5625ZM10.5002 28.875L3.20923 21.6563H17.8502L10.5002 28.875ZM3.15148 14.3795H17.8384C20.6353 14.3795 22.0541 11.0434 20.0611 9.10079L12.7249 1.93811C11.5029 0.729614 9.50135 0.729614 8.27154 1.93811L0.980601 9.15686C-1.04721 11.0988 0.34673 14.3795 3.15148 14.3795ZM10.5002 4.12307L17.7911 11.3418H3.15148L10.5002 4.12307Z" fill="#AEAEAE"/>
</svg>
