<svg width="67" height="59" viewBox="0 0 67 59" fill="none" xmlns="http://www.w3.org/2000/svg">
<g clip-path="url(#clip0_30_826)">
<path d="M42.9101 11.0625C39.7253 11.0625 36.8755 13.7947 35.6251 18.0146C34.8981 20.4783 32.5135 30.2525 15.4902 37.5007C5.93685 41.6203 14.356 47.7036 26.6277 47.7036C35.09 47.7036 45.3901 44.7985 52.8578 36.3726C57.293 31.3599 56.6672 21.8646 51.5061 16.0337C48.6098 12.8602 45.5506 11.0625 42.9101 11.0625ZM44.6666 29.4885C42.6159 29.4885 40.9443 27.8464 40.9443 25.801C40.9443 23.7694 42.617 22.1135 44.6666 22.1135C46.7161 22.1135 48.3888 23.7705 48.3888 25.801C48.3888 27.8406 46.7138 29.4885 44.6666 29.4885ZM59.8928 8.83041C54.4258 2.66537 48.4237 0 42.9101 0C34.6945 0 27.5676 5.89193 24.9039 14.9113C19.1891 31.0441 0.151117 24.4769 -9.78339e-05 40.5279C-0.130027 53.8721 14.691 59 27.8235 59C28.4778 59 29.1379 58.9875 29.7777 58.9587C39.9847 58.5698 51.5759 54.6858 61.2421 43.7708C69.4193 34.5357 68.8145 18.8984 59.8928 8.83041ZM57.043 40.1131C47.7514 50.5994 36.9779 53.1461 29.5567 53.4342C28.9983 53.4572 28.4167 53.4688 27.8351 53.4688C19.5032 53.4688 12.039 51.1929 8.36327 47.5192C6.47308 45.6178 5.55648 43.342 5.58556 40.5763C5.62918 36.0246 7.33035 35.0877 13.2487 32.5238C18.8902 30.0877 26.6254 26.7574 30.1732 16.732L30.2168 16.6024L30.2604 16.4583C32.2204 9.82373 37.1989 5.53125 42.9101 5.53125C47.243 5.53125 51.6783 7.93734 55.7053 12.4891C62.6961 20.385 63.3242 33.0492 57.043 40.1131Z" fill="url(#paint0_linear_30_826)"/>
</g>
<defs>
<linearGradient id="paint0_linear_30_826" x1="33.4998" y1="0" x2="33.4998" y2="59" gradientUnits="userSpaceOnUse">
<stop stop-color="#E55137"/>
<stop offset="1" stop-color="#E58037"/>
</linearGradient>
<clipPath id="clip0_30_826">
<rect width="67" height="59" fill="white"/>
</clipPath>
</defs>
</svg>
