<svg width="20" height="20" viewBox="0 0 20 20" fill="none" xmlns="http://www.w3.org/2000/svg">
<g clip-path="url(#clip0_67_3212)">
<path d="M10 -0.372559C4.47714 -0.372559 0 4.04586 0 9.49629C0 14.9467 4.47714 19.3651 10 19.3651C15.5229 19.3651 20 14.9467 20 9.49629C20 4.04586 15.5229 -0.372559 10 -0.372559ZM14.6352 6.33906C14.4847 7.89957 13.8335 11.6865 13.5021 13.4343C13.3619 14.1738 13.0859 14.4218 12.8187 14.446C12.2381 14.4988 11.797 14.0673 11.2346 13.7035C10.3544 13.1341 9.85722 12.7796 9.00286 12.224C8.01556 11.582 8.6556 11.2292 9.21827 10.6522C9.36552 10.5012 11.9242 8.20447 11.9737 7.99611C11.9799 7.97004 11.9858 7.87275 11.9272 7.82165C11.8685 7.77056 11.7824 7.78787 11.7201 7.80176C11.6319 7.82155 10.2258 8.73869 7.50206 10.5532C7.103 10.8236 6.74152 10.9554 6.41762 10.9485C6.06056 10.9409 5.37375 10.7493 4.86315 10.5855C4.2369 10.3846 3.73915 10.2784 3.7825 9.93717C3.80508 9.75943 4.05306 9.5777 4.52645 9.392C7.44167 8.13855 9.38559 7.31216 10.3582 6.91284C13.1353 5.77287 13.7124 5.57486 14.0885 5.56825C14.1712 5.5669 14.3562 5.58711 14.476 5.68306C14.5557 5.7514 14.6065 5.84678 14.6183 5.95031C14.6386 6.07887 14.6443 6.20926 14.6352 6.33906Z" fill="url(#paint0_linear_67_3212)"/>
</g>
<defs>
<linearGradient id="paint0_linear_67_3212" x1="10" y1="-0.372559" x2="10" y2="19.3651" gradientUnits="userSpaceOnUse">
<stop stop-color="#E55137"/>
<stop offset="1" stop-color="#E58037"/>
</linearGradient>
<clipPath id="clip0_67_3212">
<rect width="20" height="20" fill="white"/>
</clipPath>
</defs>
</svg>
